<svg version="1.1" id="Layer_1" xmlns="http://www.w3.org/2000/svg" xmlns:xlink="http://www.w3.org/1999/xlink" x="0px" y="0px"
	 width="100%" viewBox="0 0 160 160" enable-background="new 0 0 160 160" xml:space="preserve">
<path fill="#63BD73" opacity="1.000000" stroke="none" 
	d="
M161.000000,88.000000 
	C161.000000,91.361290 161.000000,94.722572 160.781433,98.197739 
	C160.079742,98.555260 159.596634,98.798897 158.637573,99.033195 
	C110.401291,99.015900 62.640907,99.035294 14.880682,98.956482 
	C10.253275,98.948853 5.626870,98.333336 1.000000,98.000000 
	C1.000000,94.969406 1.000000,91.938812 1.468655,88.454109 
	C10.569589,87.998604 19.201868,87.997208 27.897530,88.367813 
	C29.149334,90.115547 30.802168,92.843163 31.442423,92.623207 
	C33.709499,91.844398 36.405010,90.508141 37.532837,88.566750 
	C40.534290,83.400162 43.613239,79.725883 50.505600,79.807465 
	C58.468060,79.901718 63.522942,82.999550 66.770912,90.129944 
	C67.404305,91.520447 70.017433,92.547333 71.771950,92.633636 
	C72.511040,92.670006 73.958160,89.870407 74.066711,88.290131 
	C74.207542,86.239738 73.333900,84.119682 73.311737,81.944908 
	C79.388939,81.900803 85.051353,81.941406 90.603287,82.334778 
	C89.997803,84.586365 89.073647,86.501076 89.143196,88.378990 
	C89.199104,89.888603 90.492737,92.614487 91.176613,92.595695 
	C93.027687,92.544853 94.909622,91.436241 96.644196,90.497498 
	C97.259445,90.164520 97.586235,89.148972 97.872475,88.380852 
	C100.632126,80.975449 106.446457,79.475105 113.525627,79.958046 
	C119.879951,80.391533 123.659439,83.877434 126.280495,89.349945 
	C126.957237,90.762932 128.964523,92.826019 129.815933,92.593773 
	C131.470001,92.142555 132.738159,90.276642 134.624420,88.997543 
	C143.721756,88.665520 152.360886,88.332756 161.000000,88.000000 
z"/>
<path fill="#66C17B" opacity="1.000000" stroke="none" 
	d="
M90.713768,81.982010 
	C85.051353,81.941406 79.388939,81.900803 73.022049,81.780579 
	C69.685860,79.046471 67.444534,75.755676 64.349319,73.856667 
	C55.011848,68.127815 42.916988,69.641861 33.691956,77.000633 
	C22.455645,75.623924 11.661930,74.760811 1.000000,78.000000 
	C1.000000,76.285645 1.000000,74.571281 1.325372,72.300766 
	C2.771745,68.831955 3.892745,65.919312 5.480865,63.004677 
	C15.335299,62.655293 24.722609,62.307899 34.461987,62.140762 
	C37.208885,62.546055 39.603722,62.771095 42.383003,63.157646 
	C44.230953,63.544876 45.694111,63.964760 47.157997,63.967319 
	C70.876816,64.008835 94.595795,64.018547 118.314491,63.950100 
	C119.888100,63.945560 121.459724,63.255276 123.453400,62.926109 
	C128.121170,63.546097 131.607834,62.748970 133.373978,57.984489 
	C140.898727,58.326248 147.948761,58.663631 155.221893,59.278427 
	C157.296677,63.703896 159.148331,67.851952 161.000000,72.000000 
	C161.000000,74.041664 161.000000,76.083336 160.617096,78.486748 
	C150.200394,75.703362 140.053284,76.754051 129.608902,77.867126 
	C126.484146,75.789513 123.884338,73.270691 120.775337,72.066261 
	C109.239746,67.597343 100.041550,70.801689 90.713768,81.982010 
z"/>
<path fill="#5BB360" opacity="1.000000" stroke="none" 
	d="
M100.000000,161.000000 
	C87.645775,161.000000 75.291542,161.000000 62.663246,160.632202 
	C61.728268,159.847214 61.118706,159.220627 60.398800,159.044083 
	C48.417484,156.106445 37.873222,150.530075 29.281744,141.882523 
	C31.469902,141.479233 33.266266,141.034058 35.063248,141.031540 
	C65.638672,140.988708 96.214211,140.980179 126.789551,141.045654 
	C128.897446,141.050156 131.003967,141.697174 132.960587,142.356125 
	C123.363144,150.569046 113.007751,156.693130 100.763329,159.196823 
	C100.401131,159.270889 100.249702,160.375748 100.000000,161.000000 
z"/>
<path fill="#000000" opacity="1.000000" stroke="none" 
	d="
M99.000000,0.999999 
	C119.593483,1.000000 140.186966,1.000000 161.000000,1.000000 
	C161.000000,21.353703 161.000000,41.708191 160.716003,62.860004 
	C159.565582,61.769108 158.699158,59.880894 157.898926,57.604515 
	C155.683441,52.131958 153.401779,47.047562 151.058868,41.603699 
	C148.015747,37.128029 145.033890,33.011829 141.919861,28.590614 
	C138.155487,24.740589 134.523285,21.195574 130.645767,17.371342 
	C125.950508,14.359520 121.500580,11.626917 116.878067,8.571600 
	C111.406319,6.496970 106.089890,4.794026 100.827614,2.937568 
	C100.083206,2.674953 99.602669,1.664379 99.000000,0.999999 
z"/>
<path fill="#000000" opacity="1.000000" stroke="none" 
	d="
M1.000000,63.000000 
	C1.000000,42.406513 1.000000,21.813030 1.000000,1.000000 
	C21.353703,1.000000 41.708191,1.000000 62.870804,1.300958 
	C62.885399,2.064925 62.139355,2.656480 61.290615,2.970040 
	C55.857491,4.977258 50.401810,6.923417 44.593403,8.941162 
	C39.856064,11.883791 35.478863,14.774914 30.837044,17.820606 
	C27.032230,21.613895 23.492037,25.252615 19.635603,29.030613 
	C16.506227,33.434284 13.693093,37.698681 10.565872,42.127838 
	C8.129555,47.515411 6.007325,52.738228 3.546048,58.173546 
	C2.471334,59.924038 1.735667,61.462017 1.000000,63.000000 
z"/>
<path fill="#000000" opacity="1.000000" stroke="none" 
	d="
M100.468658,161.000000 
	C100.249702,160.375748 100.401131,159.270889 100.763329,159.196823 
	C113.007751,156.693130 123.363144,150.569046 133.259735,142.214996 
	C137.179474,138.188080 140.649521,134.613052 144.411987,130.870346 
	C146.413635,128.134018 148.122879,125.565369 149.990204,122.680321 
	C151.376709,119.908264 152.605148,117.452606 153.992615,114.678215 
	C155.045715,112.238663 155.939789,110.117828 157.012329,107.651138 
	C157.831696,104.551025 158.472595,101.796783 159.113510,99.042542 
	C159.596634,98.798897 160.079742,98.555260 160.781433,98.655807 
	C161.000000,119.592888 161.000000,140.185776 161.000000,161.000000 
	C140.979645,161.000000 120.958481,161.000000 100.468658,161.000000 
z"/>
<path fill="#000000" opacity="1.000000" stroke="none" 
	d="
M28.890240,142.046631 
	C37.873222,150.530075 48.417484,156.106445 60.398800,159.044083 
	C61.118706,159.220627 61.728268,159.847214 62.194588,160.632202 
	C41.739849,161.000000 21.479700,161.000000 1.000000,161.000000 
	C1.000000,140.979645 1.000000,120.958481 1.326884,100.199997 
	C2.731193,101.989143 3.808618,104.515610 4.933003,107.415894 
	C6.082006,110.387840 7.184048,112.985954 8.485191,115.875488 
	C9.845486,118.443504 11.006679,120.720108 12.209700,123.331177 
	C14.127782,126.123062 16.004034,128.580490 18.025593,131.342499 
	C21.744013,135.113617 25.317125,138.580124 28.890240,142.046631 
z"/>
<path fill="#61BB6F" opacity="1.000000" stroke="none" 
	d="
M4.886045,107.042068 
	C3.808618,104.515610 2.731193,101.989143 1.326884,99.731339 
	C1.000000,99.555557 1.000000,99.111107 1.000000,98.333336 
	C5.626870,98.333336 10.253275,98.948853 14.880682,98.956482 
	C62.640907,99.035294 110.401291,99.015900 158.637573,99.033188 
	C158.472595,101.796783 157.831696,104.551025 156.554413,107.651840 
	C138.239578,107.989655 120.561119,107.980904 102.911255,107.581390 
	C101.564133,102.710411 98.244576,101.312721 94.597008,104.044151 
	C86.432251,110.158211 78.528961,110.480453 70.347412,104.007278 
	C66.872093,101.257637 63.061150,102.814163 61.375820,106.998772 
	C42.240391,107.013451 23.563219,107.027763 4.886045,107.042068 
z"/>
<path fill="#83DDAC" opacity="1.000000" stroke="none" 
	d="
M44.953545,8.889654 
	C50.401810,6.923417 55.857491,4.977258 61.290615,2.970040 
	C62.139355,2.656480 62.885399,2.064925 63.339462,1.300958 
	C74.687561,1.000000 86.375122,1.000000 98.531342,0.999999 
	C99.602669,1.664379 100.083206,2.674953 100.827614,2.937568 
	C106.089890,4.794026 111.406319,6.496970 116.577866,8.807546 
	C112.633423,10.246119 108.816589,11.126033 104.585770,11.996778 
	C95.149307,10.996433 86.135986,9.356115 77.101334,9.228715 
	C70.415352,9.134434 63.701603,11.009134 56.673668,11.786995 
	C52.549259,10.674770 48.751400,9.782212 44.953545,8.889654 
z"/>
<path fill="#64BF77" opacity="1.000000" stroke="none" 
	d="
M1.000000,78.454109 
	C11.661930,74.760811 22.455645,75.623924 33.528130,77.306107 
	C31.805777,81.097740 29.819963,84.546776 27.834148,87.995811 
	C19.201868,87.997208 10.569589,87.998604 1.468655,88.000000 
	C1.000000,84.969406 1.000000,81.938812 1.000000,78.454109 
z"/>
<path fill="#64BF76" opacity="1.000000" stroke="none" 
	d="
M129.900116,78.029266 
	C140.053284,76.754051 150.200394,75.703362 160.617096,78.924248 
	C161.000000,81.700012 161.000000,84.400032 161.000000,87.550018 
	C152.360886,88.332756 143.721756,88.665520 134.572037,88.597832 
	C132.674316,84.808014 131.287216,81.418640 129.900116,78.029266 
z"/>
<path fill="#6FCB8C" opacity="1.000000" stroke="none" 
	d="
M1.000000,63.449982 
	C1.735667,61.462017 2.471334,59.924038 3.933374,58.181366 
	C5.433981,57.980007 6.208215,57.983341 6.848858,58.296432 
	C6.148093,60.073017 5.580919,61.539845 5.013745,63.006668 
	C3.892745,65.919312 2.771745,68.831955 1.325372,71.872299 
	C1.000000,69.299988 1.000000,66.599976 1.000000,63.449982 
z"/>
<path fill="#6FCB8C" opacity="1.000000" stroke="none" 
	d="
M157.832733,57.992676 
	C158.699158,59.880894 159.565582,61.769108 160.716003,63.328663 
	C161.000000,65.700012 161.000000,68.400032 161.000000,71.550018 
	C159.148331,67.851952 157.296677,63.703896 155.227280,59.023651 
	C155.013336,58.321617 155.017120,58.151779 155.371948,57.986992 
	C156.426224,57.992252 157.129471,57.992466 157.832733,57.992676 
z"/>
<path fill="#3D475C" opacity="1.000000" stroke="none" 
	d="
M27.897533,88.367813 
	C29.819963,84.546776 31.805777,81.097740 33.955418,77.343216 
	C42.916988,69.641861 55.011848,68.127815 64.349319,73.856667 
	C67.444534,75.755676 69.685860,79.046471 72.607269,81.865280 
	C73.333900,84.119682 74.207542,86.239738 74.066711,88.290131 
	C73.958160,89.870407 72.511040,92.670006 71.771950,92.633636 
	C70.017433,92.547333 67.404305,91.520447 66.770912,90.129944 
	C63.522942,82.999550 58.468060,79.901718 50.505600,79.807465 
	C43.613239,79.725883 40.534290,83.400162 37.532837,88.566750 
	C36.405010,90.508141 33.709499,91.844398 31.442423,92.623207 
	C30.802168,92.843163 29.149334,90.115547 27.897533,88.367813 
z"/>
<path fill="#3D475C" opacity="1.000000" stroke="none" 
	d="
M129.608902,77.867126 
	C131.287216,81.418640 132.674316,84.808014 134.113800,88.597107 
	C132.738159,90.276642 131.470001,92.142555 129.815933,92.593773 
	C128.964523,92.826019 126.957237,90.762932 126.280495,89.349945 
	C123.659439,83.877434 119.879951,80.391533 113.525627,79.958046 
	C106.446457,79.475105 100.632126,80.975449 97.872475,88.380852 
	C97.586235,89.148972 97.259445,90.164520 96.644196,90.497498 
	C94.909622,91.436241 93.027687,92.544853 91.176613,92.595695 
	C90.492737,92.614487 89.199104,89.888603 89.143196,88.378990 
	C89.073647,86.501076 89.997803,84.586365 90.603287,82.334778 
	C100.041550,70.801689 109.239746,67.597343 120.775337,72.066261 
	C123.884338,73.270691 126.484146,75.789513 129.608902,77.867126 
z"/>
<path fill="#6AC683" opacity="1.000000" stroke="none" 
	d="
M155.020920,57.981941 
	C155.017120,58.151779 155.013336,58.321617 155.004150,58.746239 
	C147.948761,58.663631 140.898727,58.326248 133.270081,57.621086 
	C131.783020,55.855415 131.140701,53.562881 129.924133,53.201023 
	C120.100456,50.279060 110.204147,47.575363 100.247063,45.144833 
	C97.515968,44.478168 94.196709,44.188225 92.451782,48.091888 
	C85.666443,48.467518 79.278343,48.753956 72.611359,48.795044 
	C70.863541,47.368603 69.388542,45.192822 67.926880,45.201744 
	C64.238113,45.224270 60.505192,46.020782 56.881088,46.887974 
	C50.261860,48.471863 43.708469,50.330887 36.735329,51.904785 
	C27.890686,51.487915 19.438335,51.241413 11.065321,50.645691 
	C12.118995,47.549179 13.093333,44.801884 14.386707,41.984375 
	C16.132410,40.939690 17.559078,39.965214 19.419666,38.991325 
	C28.645485,38.661327 37.439228,38.007706 46.228947,38.057953 
	C78.491371,38.242367 110.752449,38.660610 143.290558,39.176903 
	C145.022171,40.260178 146.477249,41.157387 147.948212,42.437313 
	C150.316360,47.874004 152.668640,52.927975 155.020920,57.981941 
z"/>
<path fill="#68C47F" opacity="1.000000" stroke="none" 
	d="
M123.032272,62.883953 
	C121.459724,63.255276 119.888100,63.945560 118.314491,63.950100 
	C94.595795,64.018547 70.876816,64.008835 47.157997,63.967319 
	C45.694111,63.964760 44.230953,63.544876 42.652916,62.898201 
	C52.339775,59.622231 62.141178,56.767212 72.287674,54.151005 
	C79.440704,54.229813 86.248650,54.069805 93.385376,54.080284 
	C103.486862,57.128490 113.259567,60.006222 123.032272,62.883953 
z"/>
<path fill="#3D485C" opacity="1.000000" stroke="none" 
	d="
M71.942581,53.912193 
	C62.141178,56.767212 52.339775,59.622231 42.268463,62.736694 
	C39.603722,62.771095 37.208885,62.546055 34.380829,61.751255 
	C32.090714,57.127441 32.095070,53.723351 37.127617,52.075150 
	C43.708469,50.330887 50.261860,48.471863 56.881088,46.887974 
	C60.505192,46.020782 64.238113,45.224270 67.926880,45.201744 
	C69.388542,45.192822 70.863541,47.368603 72.642853,49.155739 
	C72.616356,51.145256 72.279472,52.528725 71.942581,53.912193 
z"/>
<path fill="#3D485C" opacity="1.000000" stroke="none" 
	d="
M123.453400,62.926109 
	C113.259567,60.006222 103.486862,57.128490 93.363426,53.659027 
	C92.958138,51.379089 92.903572,49.690895 92.849014,48.002697 
	C94.196709,44.188225 97.515968,44.478168 100.247063,45.144833 
	C110.204147,47.575363 120.100456,50.279060 129.924133,53.201023 
	C131.140701,53.562881 131.783020,55.855415 132.795349,57.616714 
	C131.607834,62.748970 128.121170,63.546097 123.453400,62.926109 
z"/>
<path fill="#68C480" opacity="1.000000" stroke="none" 
	d="
M36.735329,51.904785 
	C32.095070,53.723351 32.090714,57.127441 34.028763,61.570999 
	C24.722609,62.307899 15.335299,62.655293 5.480866,63.004677 
	C5.580919,61.539845 6.148093,60.073017 6.998433,57.990997 
	C8.516394,55.248837 9.751190,53.121872 10.985985,50.994907 
	C19.438335,51.241413 27.890686,51.487915 36.735329,51.904785 
z"/>
<path fill="#5DB665" opacity="1.000000" stroke="none" 
	d="
M29.281746,141.882523 
	C25.317125,138.580124 21.744013,135.113617 18.502037,131.334167 
	C60.595303,131.026840 102.357437,131.032425 144.119568,131.038010 
	C140.649521,134.613052 137.179474,138.188080 133.410278,141.904266 
	C131.003967,141.697174 128.897446,141.050156 126.789551,141.045654 
	C96.214211,140.980179 65.638672,140.988708 35.063248,141.031540 
	C33.266266,141.034058 31.469902,141.479233 29.281746,141.882523 
z"/>
<path fill="#80DBA8" opacity="1.000000" stroke="none" 
	d="
M104.999763,12.005944 
	C108.816589,11.126033 112.633423,10.246119 116.750450,9.130260 
	C121.500580,11.626917 125.950508,14.359520 130.246857,17.532280 
	C127.720848,18.652712 125.348396,19.332989 122.630646,19.929903 
	C116.523483,17.233007 110.761627,14.619475 104.999763,12.005944 
z"/>
<path fill="#7DD7A2" opacity="1.000000" stroke="none" 
	d="
M122.975952,20.013268 
	C125.348396,19.332989 127.720848,18.652712 130.492188,17.811497 
	C134.523285,21.195574 138.155487,24.740589 141.675690,28.844379 
	C140.030594,29.942421 138.497482,30.481688 136.680969,30.845383 
	C131.932312,27.446083 127.467041,24.222351 122.995773,20.752270 
	C122.989769,20.505920 122.975952,20.013268 122.975952,20.013268 
z"/>
<path fill="#79D49C" opacity="1.000000" stroke="none" 
	d="
M136.964386,31.020956 
	C138.497482,30.481688 140.030594,29.942421 141.807861,29.149391 
	C145.033890,33.011829 148.015747,37.128029 150.661163,41.612564 
	C149.527267,42.005466 148.729797,42.030029 147.932343,42.054596 
	C146.477249,41.157387 145.022171,40.260178 143.117157,38.893761 
	C140.766281,35.956688 138.865341,33.488823 136.964386,31.020956 
z"/>
<path fill="#75D095" opacity="1.000000" stroke="none" 
	d="
M147.948212,42.437317 
	C148.729797,42.030029 149.527267,42.005466 150.722427,41.972031 
	C153.401779,47.047562 155.683441,52.131958 157.898911,57.604515 
	C157.129471,57.992466 156.426224,57.992252 155.371948,57.986992 
	C152.668640,52.927975 150.316360,47.874004 147.948212,42.437317 
z"/>
<path fill="#80DBA8" opacity="1.000000" stroke="none" 
	d="
M44.593403,8.941162 
	C48.751400,9.782212 52.549259,10.674770 56.398399,12.006273 
	C50.641277,14.968000 44.832874,17.490782 38.619530,19.983265 
	C35.843613,19.190655 33.472637,18.428345 31.101664,17.666035 
	C35.478863,14.774914 39.856064,11.883791 44.593403,8.941162 
z"/>
<path fill="#7DD7A2" opacity="1.000000" stroke="none" 
	d="
M30.837044,17.820606 
	C33.472637,18.428345 35.843613,19.190655 38.612411,20.229485 
	C39.010235,20.506001 38.998390,20.998772 38.690685,21.147121 
	C33.933929,24.537426 29.484880,27.779383 24.676775,30.997988 
	C22.862429,30.280203 21.407137,29.585768 19.951845,28.891335 
	C23.492037,25.252615 27.032230,21.613895 30.837044,17.820606 
z"/>
<path fill="#79D49C" opacity="1.000000" stroke="none" 
	d="
M19.635603,29.030613 
	C21.407137,29.585768 22.862429,30.280203 24.596272,31.327608 
	C22.911797,34.117298 20.948769,36.554016 18.985744,38.990738 
	C17.559078,39.965214 16.132410,40.939690 13.986971,41.966404 
	C12.472117,42.000118 11.676039,41.981598 10.879959,41.963078 
	C13.693093,37.698681 16.506227,33.434284 19.635603,29.030613 
z"/>
<path fill="#75D095" opacity="1.000000" stroke="none" 
	d="
M10.565872,42.127838 
	C11.676039,41.981598 12.472117,42.000118 13.667934,42.036613 
	C13.093333,44.801884 12.118995,47.549179 11.065321,50.645691 
	C9.751190,53.121872 8.516394,55.248837 7.132024,57.681236 
	C6.208215,57.983341 5.433981,57.980007 4.272421,57.968857 
	C6.007325,52.738228 8.129555,47.515411 10.565872,42.127838 
z"/>
<path fill="#5EB767" opacity="1.000000" stroke="none" 
	d="
M144.411987,130.870346 
	C102.357437,131.032425 60.595303,131.026840 18.356730,131.029572 
	C16.004034,128.580490 14.127782,126.123062 12.667500,123.331909 
	C58.666359,122.997673 104.249252,122.997192 149.832138,122.996712 
	C148.122879,125.565369 146.413635,128.134018 144.411987,130.870346 
z"/>
<path fill="#5FB86A" opacity="1.000000" stroke="none" 
	d="
M149.990204,122.680321 
	C104.249252,122.997192 58.666359,122.997673 12.625671,122.997437 
	C11.006679,120.720108 9.845486,118.443504 8.845391,115.647911 
	C9.470807,114.962029 9.935983,114.646973 10.399317,114.649666 
	C27.358793,114.748032 44.318016,114.916122 61.277527,114.951958 
	C63.554661,114.956772 65.833160,114.314690 68.416496,114.127670 
	C71.024780,114.954170 73.339859,116.229019 75.628090,116.182541 
	C82.400444,116.044952 89.162193,115.385696 96.314590,115.101242 
	C100.988823,115.514671 105.280289,116.015007 109.563644,115.953239 
	C124.321815,115.740433 139.077164,115.331291 153.833588,114.996933 
	C152.605148,117.452606 151.376709,119.908264 149.990204,122.680321 
z"/>
<path fill="#60BA6C" opacity="1.000000" stroke="none" 
	d="
M153.992615,114.678207 
	C139.077164,115.331291 124.321815,115.740433 109.563644,115.953239 
	C105.280289,116.015007 100.988823,115.514671 96.489655,114.816826 
	C98.479706,112.231819 100.681183,110.101982 102.882660,107.972153 
	C120.561119,107.980904 138.239578,107.989655 156.375946,107.997704 
	C155.939789,110.117828 155.045715,112.238663 153.992615,114.678207 
z"/>
<path fill="#60BA6D" opacity="1.000000" stroke="none" 
	d="
M68.111023,113.972153 
	C65.833160,114.314690 63.554661,114.956772 61.277527,114.951958 
	C44.318016,114.916122 27.358793,114.748032 10.399317,114.649666 
	C9.935983,114.646973 9.470807,114.962029 8.646290,115.356491 
	C7.184048,112.985954 6.082006,110.387840 4.933004,107.415894 
	C23.563219,107.027763 42.240391,107.013451 61.462891,107.337036 
	C64.042488,109.774010 66.076752,111.873085 68.111023,113.972153 
z"/>
<path fill="#3D475C" opacity="1.000000" stroke="none" 
	d="
M68.416496,114.127670 
	C66.076752,111.873085 64.042488,109.774010 61.921146,107.336670 
	C63.061150,102.814163 66.872093,101.257637 70.347412,104.007278 
	C78.528961,110.480453 86.432251,110.158211 94.597008,104.044151 
	C98.244576,101.312721 101.564133,102.710411 102.911255,107.581390 
	C100.681183,110.101982 98.479706,112.231819 96.103165,114.646057 
	C89.162193,115.385696 82.400444,116.044952 75.628090,116.182541 
	C73.339859,116.229019 71.024780,114.954170 68.416496,114.127670 
z"/>
<path fill="#6FCC8F" opacity="1.000000" stroke="none" 
	d="
M38.998390,20.998772 
	C38.998390,20.998772 39.010235,20.506001 39.017353,20.259781 
	C44.832874,17.490782 50.641277,14.968000 56.724953,12.225941 
	C63.701603,11.009134 70.415352,9.134434 77.101334,9.228715 
	C86.135986,9.356115 95.149307,10.996433 104.585770,11.996777 
	C110.761627,14.619475 116.523483,17.233007 122.630646,19.929903 
	C122.975952,20.013268 122.989769,20.505920 122.611282,20.913910 
	C120.595703,21.547335 118.958939,21.966274 117.321442,21.969149 
	C93.162430,22.011539 69.003258,22.021622 44.844353,21.955585 
	C42.894840,21.950258 40.947006,21.332136 38.998390,20.998772 
z"/>
<path fill="#6CC989" opacity="1.000000" stroke="none" 
	d="
M38.690685,21.147121 
	C40.947006,21.332136 42.894840,21.950258 44.844353,21.955585 
	C69.003258,22.021622 93.162430,22.011539 117.321442,21.969149 
	C118.958939,21.966274 120.595703,21.547335 122.617294,21.160259 
	C127.467041,24.222351 131.932312,27.446083 136.680969,30.845387 
	C138.865341,33.488823 140.766281,35.956688 142.840637,38.707695 
	C110.752449,38.660610 78.491371,38.242367 46.228947,38.057953 
	C37.439228,38.007706 28.645485,38.661327 19.419666,38.991325 
	C20.948769,36.554016 22.911797,34.117298 24.955326,31.350958 
	C29.484880,27.779383 33.933929,24.537426 38.690685,21.147121 
z"/>
<path fill="#69C581" opacity="1.000000" stroke="none" 
	d="
M92.451782,48.091888 
	C92.903572,49.690895 92.958138,51.379089 93.034637,53.488544 
	C86.248650,54.069805 79.440704,54.229813 72.287674,54.151009 
	C72.279472,52.528725 72.616356,51.145256 72.921745,49.401089 
	C79.278343,48.753956 85.666443,48.467518 92.451782,48.091888 
z"/>
</svg>