<?xml version="1.0" encoding="iso-8859-1"?>
<!-- Uploaded to: SVG Repo, www.svgrepo.com, Generator: SVG Repo Mixer Tools -->
<svg version="1.1" id="Layer_1" xmlns="http://www.w3.org/2000/svg" xmlns:xlink="http://www.w3.org/1999/xlink" 
	 viewBox="0 0 512 512" xml:space="preserve">
<g>
	<polygon style="fill:#0084FF;" points="236.189,456.904 236.189,501.551 170.289,501.551 	"/>
	<polygon style="fill:#0084FF;" points="275.87,456.286 275.87,501.551 342.68,501.551 	"/>
	<rect x="220.815" y="228.84" style="fill:#0084FF;" width="70.355" height="27.168"/>
</g>
<path style="fill:#10BAFC;" d="M362.583,218.542c0,5.687-4.61,10.298-10.298,10.298H159.715c-5.688,0-10.298-4.611-10.298-10.298
	V88.668c0-5.687,4.61-10.298,10.298-10.298h192.569c5.688,0,10.298,4.611,10.298,10.298L362.583,218.542L362.583,218.542z"/>
<g>
	<circle style="fill:#D50707;" cx="255.997" cy="27.865" r="17.416"/>
	<circle style="fill:#D50707;" cx="207.408" cy="122.257" r="17.416"/>
	<circle style="fill:#D50707;" cx="304.587" cy="122.257" r="17.416"/>
	<rect x="220.815" y="166.228" style="fill:#D50707;" width="70.355" height="30.216"/>
</g>
<path style="fill:#10BAFC;" d="M341.684,415.964c0,4.571-3.706,8.278-8.279,8.278H178.594c-4.573,0-8.279-3.707-8.279-8.278V264.286
	c0-4.571,3.706-8.278,8.279-8.278h154.811c4.573,0,8.279,3.707,8.279,8.278V415.964z"/>
<g>
	<circle style="fill:#D50707;" cx="255.997" cy="338.558" r="25.078"/>
	<circle style="fill:#D50707;" cx="418.307" cy="288.401" r="17.416"/>
	<circle style="fill:#D50707;" cx="93.688" cy="288.401" r="17.416"/>
</g>
<path d="M235.276,122.257c0-15.365-12.499-27.865-27.864-27.865c-15.366,0-27.866,12.501-27.866,27.865s12.501,27.865,27.866,27.865
	C222.777,150.122,235.276,137.622,235.276,122.257z M207.412,129.224c-3.842,0-6.968-3.125-6.968-6.967
	c0-3.841,3.125-6.967,6.968-6.967c3.841,0,6.966,3.125,6.966,6.967C214.378,126.098,211.253,129.224,207.412,129.224z"/>
<path d="M304.588,150.122c15.365,0,27.865-12.501,27.865-27.865s-12.501-27.865-27.865-27.865s-27.865,12.501-27.865,27.865
	S289.223,150.122,304.588,150.122z M304.588,115.29c3.841,0,6.967,3.125,6.967,6.967c0,3.841-3.125,6.967-6.967,6.967
	s-6.967-3.125-6.967-6.967C297.621,118.416,300.747,115.29,304.588,115.29z"/>
<path d="M291.18,206.897c5.77,0,10.449-4.678,10.449-10.449v-30.216c0-5.77-4.679-10.449-10.449-10.449H220.82
	c-5.77,0-10.449,4.679-10.449,10.449v30.216c0,5.771,4.679,10.449,10.449,10.449H291.18z M231.269,176.68h49.462v9.318h-49.462
	L231.269,176.68L231.269,176.68z"/>
<path d="M255.999,303.031c-19.59,0-35.528,15.937-35.528,35.528s15.937,35.528,35.528,35.528s35.528-15.937,35.528-35.528
	C291.527,318.969,275.59,303.031,255.999,303.031z M255.999,353.188c-8.067,0-14.629-6.562-14.629-14.629
	s6.562-14.629,14.629-14.629c8.067,0,14.629,6.562,14.629,14.629S264.066,353.188,255.999,353.188z"/>
<path d="M418.311,260.536c-11.671,0-21.681,7.215-25.824,17.417h-40.353v-13.667c0-10.326-8.401-18.727-18.728-18.727H301.63v-6.27
	h50.655c11.44,0,20.747-9.307,20.747-20.747V88.668c0-11.44-9.307-20.747-20.747-20.747H266.45V53.69
	c10.202-4.142,17.417-14.155,17.417-25.824C283.866,12.501,271.365,0,255.999,0c-15.365,0-27.865,12.501-27.865,27.865
	c0,11.67,7.215,21.682,17.416,25.824v14.231h-85.836c-11.44,0-20.747,9.307-20.747,20.747v129.874
	c0,11.44,9.307,20.747,20.747,20.747h50.655v6.27h-31.776c-10.327,0-18.728,8.401-18.728,18.727v13.665H119.53
	c-1.383-3.422-3.45-6.565-6.139-9.254c-5.263-5.262-12.26-8.161-19.703-8.161c-15.363,0-27.863,12.498-27.866,27.864
	c0,15.366,12.501,27.866,27.866,27.866c11.671,0,21.682-7.215,25.824-17.417h40.353v117.115c0,10.326,8.401,18.727,18.728,18.727
	h47.145v16.669l-61.312,41.539c-3.8,2.575-5.474,7.329-4.127,11.717c1.346,4.388,5.399,7.384,9.99,7.384h65.9
	c5.77,0,10.449-4.679,10.449-10.449v-10.405v-34.242v-22.21h18.783v21.595v34.38v10.884c0,5.77,4.679,10.449,10.449,10.449h66.811
	c4.59,0,8.643-2.996,9.99-7.383c1.347-4.388-0.328-9.141-4.128-11.717l-62.223-42.157v-16.051h47.086
	c10.327,0,18.728-8.401,18.728-18.727V298.852h40.335c1.383,3.422,3.45,6.565,6.139,9.254c5.263,5.262,12.26,8.161,19.703,8.161
	c15.364,0,27.864-12.499,27.866-27.864C446.177,273.037,433.677,260.536,418.311,260.536z M255.999,20.899
	c3.842,0,6.968,3.125,6.968,6.967s-3.125,6.967-6.968,6.967c-3.841,0-6.967-3.125-6.967-6.967S252.158,20.899,255.999,20.899z
	 M93.688,295.368c-3.842,0-6.968-3.125-6.968-6.966c0.001-3.842,3.126-6.968,6.968-6.968c1.861,0,3.611,0.724,4.927,2.04
	c1.316,1.316,2.039,3.064,2.039,4.926C100.654,292.242,97.529,295.368,93.688,295.368z M225.739,476.604v14.497h-21.398
	L225.739,476.604z M308.627,491.101h-22.308v-0.435v-14.679L308.627,491.101z M159.866,88.819h192.268v129.572H159.866V88.819z
	 M231.269,239.289h49.462v6.27h-49.462L231.269,239.289L231.269,239.289z M331.235,413.793h-150.47V266.458h150.47V413.793z
	 M418.311,295.368c-1.861,0-3.61-0.724-4.926-2.04c-1.316-1.316-2.04-3.065-2.04-4.926c0-3.842,3.124-6.968,6.965-6.968
	c3.842,0,6.968,3.125,6.968,6.967C425.278,292.242,422.153,295.368,418.311,295.368z"/>
<path d="M278.923,298.965l0.463,0.272c1.669,0.984,3.498,1.455,5.304,1.455c3.576,0,7.057-1.837,9.007-5.137
	c2.935-4.97,1.285-11.377-3.682-14.311l-0.588-0.345c-4.992-2.9-11.386-1.206-14.286,3.782
	C272.241,289.669,273.934,296.065,278.923,298.965z"/>
<path d="M303.207,306.283c-5.274,2.344-7.649,8.518-5.306,13.792c7.672,17.264,3.85,37.84-9.512,51.202
	c-8.963,8.964-20.736,13.446-32.51,13.445c-11.773-0.002-23.549-4.483-32.511-13.445c-17.926-17.926-17.926-47.095,0-65.022
	c7.558-7.558,17.162-12.131,27.771-13.224c5.741-0.59,9.914-5.724,9.324-11.465c-0.589-5.739-5.694-9.911-11.465-9.324
	c-15.22,1.567-29.572,8.398-40.409,19.234c-26.073,26.075-26.073,68.503,0,94.578c13.039,13.038,30.163,19.556,47.289,19.556
	c17.125,0,34.251-6.518,47.288-19.556c19.432-19.434,24.991-49.358,13.833-74.466C314.655,306.316,308.479,303.939,303.207,306.283z
	"/>
</svg>